HIERARCHY
ROOT Hips
{
	OFFSET -0.001795 -0.223333 0.028219
	CHANNELS 6 Xposition Yposition Zposition Zrotation Yrotation Xrotation 
	JOINT LeftUpLeg
	{
		OFFSET 0.069520 -0.091406 -0.006815
		CHANNELS 3 Zrotation Yrotation Xrotation
		JOINT LeftLeg
		{
			OFFSET 0.034277 -0.375199 -0.004496
			CHANNELS 3 Zrotation Yrotation Xrotation
			JOINT LeftFoot
			{
				OFFSET -0.013596 -0.397961 -0.043693
				CHANNELS 3 Zrotation Yrotation Xrotation
				JOINT LeftToe
				{
					OFFSET 0.026358 -0.055791 0.119288
					CHANNELS 3 Zrotation Yrotation Xrotation
					End Site
					{
						OFFSET 0.000000 0.000000 0.000000
					}
				}
			}
		}
	}
	JOINT RightUpLeg
	{
		OFFSET -0.067670 -0.090522 -0.004320
		CHANNELS 3 Zrotation Yrotation Xrotation
		JOINT RightLeg
		{
			OFFSET -0.038290 -0.382569 -0.008850
			CHANNELS 3 Zrotation Yrotation Xrotation
			JOINT RightFoot
			{
				OFFSET 0.015774 -0.398415 -0.042312
				CHANNELS 3 Zrotation Yrotation Xrotation
				JOINT RightToe
				{
					OFFSET -0.025372 -0.048144 0.123348
					CHANNELS 3 Zrotation Yrotation Xrotation
					End Site
					{
						OFFSET 0.000000 0.000000 0.000000
					}
				}
			}
		}
	}
	JOINT Spine
	{
		OFFSET -0.002533 0.108963 -0.026696
		CHANNELS 3 Zrotation Yrotation Xrotation
		JOINT Spine1
		{
			OFFSET 0.005487 0.135180 0.001092
			CHANNELS 3 Zrotation Yrotation Xrotation
			JOINT Spine2
			{
				OFFSET 0.001457 0.052922 0.025425
				CHANNELS 3 Zrotation Yrotation Xrotation
				JOINT Neck
				{
					OFFSET -0.002778 0.213870 -0.042857
					CHANNELS 3 Zrotation Yrotation Xrotation
					JOINT Head
					{
						OFFSET 0.005152 0.064970 0.051349
						CHANNELS 3 Zrotation Yrotation Xrotation
						End Site
						{
							OFFSET 0.000000 0.000000 0.000000
						}
					}
				}
				JOINT LeftShoulder
				{
					OFFSET 0.078845 0.121749 -0.034090
					CHANNELS 3 Zrotation Yrotation Xrotation
					JOINT LeftArm
					{
						OFFSET 0.090977 0.030469 -0.008868
						CHANNELS 3 Zrotation Yrotation Xrotation
						JOINT LeftForeArm
						{
							OFFSET 0.259612 -0.012772 -0.027456
							CHANNELS 3 Zrotation Yrotation Xrotation
							JOINT LeftHand
							{
								OFFSET 0.249234 0.008986 -0.001171
								CHANNELS 3 Zrotation Yrotation Xrotation
								End Site
								{
									OFFSET 0.000000 0.000000 0.000000
								}
							}
						}
					}
				}
				JOINT RightShoulder
				{
					OFFSET -0.081759 0.118833 -0.038615
					CHANNELS 3 Zrotation Yrotation Xrotation
					JOINT RightArm
					{
						OFFSET -0.096012 0.032551 -0.009143
						CHANNELS 3 Zrotation Yrotation Xrotation
						JOINT RightForeArm
						{
							OFFSET -0.253742 -0.013329 -0.021401
							CHANNELS 3 Zrotation Yrotation Xrotation
							JOINT RightHand
							{
								OFFSET -0.255298 0.007772 -0.005559
								CHANNELS 3 Zrotation Yrotation Xrotation
								End Site
								{
									OFFSET 0.000000 0.000000 0.000000
								}
							}
						}
					}
				}
			}
		}
	}
}
MOTION
Frames: 10
Frame Time: 0.050000
0.000000 0.917657 0.000000 1.296359 -1.627351 3.366018 10.860271 0.008987 -24.365060 -9.450237 1.988827 16.705529 10.173210 20.665351 7.213353 0.000000 0.000000 0.000000 -3.140316 0.253518 -2.004681 4.696409 -0.470463 9.618185 -4.779158 -9.272409 -8.964762 0.000000 0.000000 0.000000 4.366197 -1.705334 21.301016 -7.656397 2.434210 -23.358063 -0.936353 7.554771 26.501638 11.209760 -2.893964 -31.557617 0.000000 0.000000 0.000000 -21.056231 -13.358093 4.403102 -42.631913 -8.505790 -3.657706 -18.425083 -34.121266 6.814346 0.000000 0.000000 0.000000 24.330857 4.603037 3.583824 50.497127 26.016013 3.087015 16.728861 33.754616 7.106159 0.000000 0.000000 0.000000 
0.009275 0.915606 0.022795 1.424951 -0.946956 4.247624 9.407840 -0.350571 -24.186951 -6.981366 1.040290 8.946006 7.925131 16.944071 7.477057 0.000000 0.000000 0.000000 -3.690432 0.184110 -0.761881 4.160804 -0.387016 9.511925 -4.066250 -7.609222 -7.906894 0.000000 0.000000 0.000000 3.609444 -1.618991 21.730499 -6.964155 2.220029 -24.479033 -1.498663 6.618237 25.811260 12.360438 -3.137512 -33.950305 0.000000 0.000000 0.000000 -21.371741 -12.451929 4.026550 -41.366986 -7.482412 -3.853376 -22.239738 -34.617085 8.138468 0.000000 0.000000 0.000000 26.675026 3.986754 3.092862 48.596394 24.976009 2.388635 18.966304 33.453996 7.613311 0.000000 0.000000 0.000000 
0.021446 0.911261 0.048856 0.691379 -2.739847 3.340679 9.359434 -0.210304 -24.444879 -6.893631 1.157334 11.262212 9.191745 18.956183 8.490377 0.000000 0.000000 0.000000 -4.566048 0.139945 0.587496 5.129769 -0.522039 12.105532 -4.391572 -7.434467 -9.875885 0.000000 0.000000 0.000000 3.126118 -1.476446 22.506363 -6.467657 2.083690 -24.595412 -1.719456 7.848127 26.567867 12.803041 -3.372576 -33.929493 0.000000 0.000000 0.000000 -19.642104 -12.777022 4.220765 -42.610070 -8.190566 -3.869018 -19.711463 -33.189328 7.013525 0.000000 0.000000 0.000000 26.804176 3.956287 3.203506 49.000466 26.176207 2.802920 14.950816 32.304080 6.151014 0.000000 0.000000 0.000000 
0.036396 0.909117 0.077882 0.461309 -3.365204 3.095802 9.324319 -0.172551 -23.586968 -8.901941 1.779123 13.954576 9.978031 20.176857 9.605732 0.000000 0.000000 0.000000 -5.488210 0.213588 0.034352 5.245441 -0.510117 17.066096 -4.483095 -7.741921 -9.601302 0.000000 0.000000 0.000000 2.410219 -1.271578 22.138466 -6.229601 2.049033 -23.747304 -1.358319 7.030057 26.734169 11.362573 -2.880141 -33.496210 0.000000 0.000000 0.000000 -20.018430 -13.273396 4.828901 -41.842447 -8.015046 -3.927198 -19.865273 -34.234420 7.384075 0.000000 0.000000 0.000000 26.865951 4.361754 3.050234 48.924057 24.501709 2.179377 15.173423 31.794738 6.022888 0.000000 0.000000 0.000000 
0.052594 0.909936 0.109546 0.133119 -3.064334 2.049517 8.608655 -0.313329 -22.052148 -9.480717 2.097478 16.947222 10.441543 20.975792 8.190912 0.000000 0.000000 0.000000 -7.098952 0.358336 -2.773734 7.212069 -1.133537 26.750705 -4.557376 -9.224058 -6.792369 0.000000 0.000000 0.000000 1.549380 -1.096284 22.102125 -5.381893 1.859647 -23.549175 -1.633146 6.568229 27.775492 11.648248 -3.081095 -33.812254 0.000000 0.000000 0.000000 -19.485080 -14.062617 5.380508 -42.009938 -8.825121 -3.829537 -17.052521 -35.484748 6.807619 0.000000 0.000000 0.000000 28.695928 4.230990 3.012983 47.976494 23.621741 1.486295 12.645551 31.258124 5.211013 0.000000 0.000000 0.000000 
0.067613 0.912763 0.142918 0.653767 -4.385834 1.091515 7.484735 -0.410716 -19.336478 -10.133631 2.483005 18.392892 10.351478 20.843248 6.429867 0.000000 0.000000 0.000000 -9.012716 0.530136 -8.638383 8.037004 -1.371972 40.555806 -3.807840 -9.044848 -1.463649 0.000000 0.000000 0.000000 0.574376 -0.828307 22.375441 -5.452630 1.878656 -22.906497 -1.623716 5.853476 27.375980 10.417334 -2.871691 -32.525212 0.000000 0.000000 0.000000 -19.494654 -15.063859 6.333115 -41.984550 -9.014144 -3.845628 -15.576857 -36.571750 6.661919 0.000000 0.000000 0.000000 28.402281 5.116639 2.940932 48.167861 21.746059 1.005276 12.924322 31.173748 5.135210 0.000000 0.000000 0.000000 
0.080035 0.915678 0.177843 0.382580 -3.966909 -0.263980 6.242232 -0.520420 -15.408304 -10.139370 2.478211 18.686265 9.921425 20.210538 3.906455 0.000000 0.000000 0.000000 -10.014205 0.553234 -14.068114 9.179536 -2.204381 52.167393 -4.045822 -11.249614 4.191120 0.000000 0.000000 0.000000 0.442481 -0.863019 23.877727 -4.949276 1.764020 -23.125721 -2.476235 4.571514 26.796409 11.257041 -3.610880 -31.751457 0.000000 0.000000 0.000000 -19.114651 -14.752592 6.380381 -41.417456 -9.738914 -3.611554 -15.535192 -36.840499 6.755925 0.000000 0.000000 0.000000 28.860616 4.188908 1.874993 48.843984 20.243635 0.630362 13.070944 29.553241 4.786163 0.000000 0.000000 0.000000 
0.089000 0.917810 0.213967 -0.278994 -3.590190 -1.361172 5.579056 -0.440890 -10.766495 -9.679755 2.258346 17.915852 9.541608 19.606911 0.490725 0.000000 0.000000 0.000000 -10.178854 0.578411 -18.031582 10.762963 -3.390053 54.372535 -5.118159 -13.597725 4.291434 0.000000 0.000000 0.000000 1.142009 -1.058543 24.313861 -4.793067 1.747757 -22.369555 -3.462652 3.316180 25.910117 10.392612 -3.339619 -31.492543 0.000000 0.000000 0.000000 -18.379441 -14.638203 6.474068 -40.731225 -9.396264 -3.676792 -15.527665 -38.019345 7.033692 0.000000 0.000000 0.000000 28.516625 3.836435 1.198294 49.810557 17.931210 -0.031160 13.205968 28.953315 4.626335 0.000000 0.000000 0.000000 
0.094629 0.919851 0.250668 -0.916380 -3.196716 -2.200393 5.243503 -0.296941 -6.689484 -8.718864 1.917759 17.310945 9.019153 18.580865 -1.066612 0.000000 0.000000 0.000000 -9.218556 0.738971 -20.522433 11.686371 -3.845700 49.463545 -6.469421 -16.364180 3.215624 0.000000 0.000000 0.000000 1.540615 -1.196388 24.883524 -4.120591 1.576971 -22.943272 -4.237620 2.263021 26.439332 10.551705 -3.638922 -31.287696 0.000000 0.000000 0.000000 -18.486611 -13.926217 6.319988 -39.715777 -9.983110 -3.543131 -15.724095 -39.191559 7.399635 0.000000 0.000000 0.000000 28.795043 3.849208 0.887452 49.426903 16.206270 -0.723711 13.754120 28.281907 4.577442 0.000000 0.000000 0.000000 
0.097580 0.921227 0.287674 -1.217593 -3.508083 -2.534719 4.551340 -0.137485 -2.824387 -8.063062 1.698677 16.272500 8.957692 18.500381 -2.973411 0.000000 0.000000 0.000000 -7.437544 1.093355 -22.033032 10.807380 -2.864471 39.889652 -6.278325 -15.689870 1.269227 0.000000 0.000000 0.000000 1.724587 -1.226545 25.012605 -4.080877 1.560274 -23.242881 -3.861890 1.718905 26.324981 10.142434 -3.631815 -30.629423 0.000000 0.000000 0.000000 -17.832319 -13.249307 6.088519 -40.180416 -9.976777 -3.618832 -16.311068 -40.171014 7.924073 0.000000 0.000000 0.000000 27.864134 2.894253 0.024785 50.228131 14.181116 -1.438713 15.283266 28.982442 5.070481 0.000000 0.000000 0.000000 
